<!-- accounting-icon-new.svg -->
<svg xmlns="http://www.w3.org/2000/svg" width="50" height="50" viewBox="0 0 24 24" fill="none" stroke="#0066cc" stroke-width="1.5" stroke-linecap="round" stroke-linejoin="round">
  <path d="M4 21V5a2 2 0 0 1 2-2h12a2 2 0 0 1 2 2v16" />
  <path d="M4 16h16" />
  <path d="M9 8H7v2h2V8z" />
  <path d="M13 8h-2v2h2V8z" />
  <path d="M17 8h-2v2h2V8z" />
  <path d="M9 12H7v2h2v-2z" />
  <path d="M13 12h-2v2h2v-2z" />
  <path d="M17 12h-2v2h2v-2z" />
  <rect x="2" y="19" width="20" height="2" rx="1" />
</svg>