<?xml version="1.0" encoding="UTF-8"?>
<svg width="24" height="24" viewBox="0 0 24 24" fill="none" xmlns="http://www.w3.org/2000/svg">
  <path fill-rule="evenodd" clip-rule="evenodd" d="M12 2C6.48 2 2 6.48 2 12C2 17.52 6.48 22 12 22C17.52 22 22 17.52 22 12C22 6.48 17.52 2 12 2ZM17.52 13.76C17.52 13.76 17.9 13.86 18 14.08C18.1 14.3 17.92 14.4 17.82 14.48C17.72 14.56 16.78 15.22 16.68 15.3C16.58 15.38 16.48 15.36 16.38 15.28C16.28 15.2 15.52 14.68 14.52 13.76C13.8 13.1 13.32 12.34 13.22 12.2C13.12 12.06 13.24 11.98 13.34 11.9C13.44 11.82 13.6 11.68 13.7 11.58C13.8 11.48 13.82 11.4 13.9 11.3C13.98 11.2 13.96 11.12 13.9 11.04C13.84 10.96 13.34 9.98 13.14 9.6C13 9.3 12.82 9.32 12.68 9.32C12.54 9.32 12.42 9.32 12.28 9.32C12.14 9.32 11.9 9.38 11.7 9.6C11.5 9.82 10.76 10.52 10.76 11.5C10.76 12.48 11.46 13.42 11.56 13.56C11.66 13.7 13.32 16.2 15.82 17.06C17.38 17.62 17.82 17.52 18.28 17.46C18.74 17.4 19.54 16.76 19.74 16.28C19.94 15.8 19.94 15.4 19.88 15.28C19.82 15.16 19.7 15.12 19.52 15.04C19.34 14.96 18.36 14.48 18.18 14.42C18 14.36 17.86 14.32 17.72 14.5C17.58 14.68 17.12 15.12 17 15.22C16.88 15.32 16.76 15.34 16.58 15.26C16.4 15.18 15.74 14.96 14.94 14.26C14.32 13.7 13.9 13.02 13.78 12.84C13.66 12.66 13.78 12.54 13.88 12.44C13.98 12.34 14.12 12.18 14.22 12.06C14.32 11.94 14.36 11.84 14.44 11.74C14.52 11.64 14.48 11.54 14.42 11.46C14.38 11.38 13.98 10.38 13.8 10.04C13.62 9.7 13.46 9.74 13.34 9.74C13.22 9.74 13.1 9.72 12.96 9.72C12.84 9.72 12.66 9.74 12.48 9.82C12.3 9.9 11.82 10.14 11.52 10.54C11.22 10.94 10.9 11.36 10.9 12.34C10.9 13.32 11.62 14.28 11.72 14.42C11.82 14.56 13.36 16.94 15.72 17.76C16.32 18.04 16.78 18.16 17.14 18.24C17.7 18.38 18.2 18.36 18.6 18.3C19.04 18.24 19.86 17.8 20.06 17.36C20.26 16.92 20.26 16.54 20.2 16.44C20.14 16.34 20.02 16.3 19.84 16.22C19.66 16.14 18.68 15.66 18.5 15.58C18.32 15.5 18.18 15.46 18.02 15.62C17.88 15.82 17.42 16.24 17.3 16.34C17.18 16.44 17.06 16.46 16.88 16.38C16.7 16.3 16.04 16.06 15.24 15.36C14.6 14.78 14.18 14.08 14.04 13.88C13.92 13.7 14.04 13.6 14.14 13.5C14.24 13.4 14.38 13.24 14.48 13.12C14.58 13 14.64 12.92 14.72 12.82C14.8 12.72 14.78 12.64 14.72 12.56C14.7 12.54 14.52 12.18 14.36 11.84C14.26 11.58 14.14 11.34 14.06 11.16C13.94 10.98 13.84 10.98 13.7 10.98C13.56 10.98 13.48 10.98 13.36 10.98C13.24 10.98 13.08 11.04 12.94 11.16C12.8 11.28 12.36 11.7 12.36 12.64C12.36 13.58 13 14.48 13.1 14.62C13.2 14.76 14.36 16.62 16.32 17.38C16.82 17.62 17.2 17.76 17.52 17.86C18.04 18.02 18.5 18 18.86 17.96C19.26 17.9 20.02 17.48 20.22 17.04C20.42 16.6 20.42 16.22 20.36 16.12C20.3 16.02 20.18 15.98 20 15.9C19.82 15.82 18.84 15.34 18.66 15.26C18.48 15.18 18.34 15.14 18.18 15.3C18.02 15.46 17.58 15.9 17.46 16C17.34 16.1 17.22 16.12 17.04 16.04C16.86 15.96 16.2 15.72 15.4 15.02C14.78 14.46 14.36 13.78 14.24 13.6C14.12 13.42 14.22 13.3 14.32 13.2C14.42 13.1 14.56 12.94 14.66 12.82C14.76 12.7 14.8 12.6 14.88 12.5C14.96 12.4 14.94 12.32 14.88 12.24C14.84 12.16 14.6 11.62 14.36 11.06L14.36 11.06C14.2 10.68 14.04 10.34 13.97 10.2C13.86 10 13.76 10 13.62 10H13.44C13.32 10 13.14 10.06 13 10.18C12.86 10.3 12.4 10.74 12.4 11.68C12.4 12.34 12.72 12.92 12.86 13.12C13 13.32 14.34 15.42 16.52 16.26C17.12 16.5 17.54 16.68 17.88 16.8C18.38 16.98 18.82 16.96 19.16 16.92C19.54 16.88 20.28 16.46 20.48 16.02C20.68 15.58 20.68 15.2 20.62 15.1C20.56 15 20.44 14.96 20.26 14.88C20.08 14.8 19.1 14.32 18.92 14.24C18.74 14.16 18.6 14.12 18.44 14.28C18.28 14.44 17.84 14.88 17.72 14.98C17.6 15.08 17.48 15.1 17.3 15.02C17.12 14.94 16.46 14.7 15.66 14C15.04 13.44 14.62 12.76 14.5 12.58C14.38 12.4 14.48 12.28 14.58 12.18C14.68 12.08 14.82 11.92 14.92 11.8C15.02 11.68 15.06 11.58 15.14 11.48C15.22 11.38 15.2 11.3 15.14 11.22C15.08 11.14 14.7 10.36 14.5 9.9C14.32 9.48 14.14 9.52 14.02 9.52C13.9 9.52 13.76 9.5 13.62 9.5C13.48 9.5 13.28 9.54 13.1 9.7C12.92 9.86 12.44 10.32 12.44 11.24C12.44 12.16 13.14 13.06 13.24 13.2C13.34 13.34 14.74 15.54 16.98 16.42C17.48 16.64 17.9 16.78 18.24 16.88C18.74 17.02 19.2 17 19.54 16.94C19.92 16.88 20.64 16.46 20.84 15.96C21.04 15.46 21.04 15.04 20.98 14.94C20.92 14.84 20.8 14.8 20.62 14.72C20.44 14.64 19.72 14.26 19.34 14.1C18.96 13.94 18.82 13.9 18.66 14.06C18.5 14.22 18.08 14.62 17.96 14.72C17.84 14.82 17.72 14.84 17.54 14.76C17.36 14.68 16.52 14.36 15.56 13.5C14.8 12.82 14.3 11.98 14.18 11.82C14.06 11.66 14.16 11.56 14.26 11.46C14.36 11.36 14.5 11.2 14.6 11.08C14.7 10.96 14.74 10.86 14.82 10.76C14.9 10.66 14.88 10.58 14.82 10.5C14.8 10.48 14.5 9.78 14.26 9.28C14.08 8.92 13.9 8.98 13.76 8.98C13.62 8.98 13.48 8.96 13.34 8.96C13.2 8.96 13 9 12.82 9.14C12.66 9.28 12.2 9.68 12.2 10.52C12.2 11.36 12.82 12.16 12.92 12.3C13 12.44 14.26 14.38 16.24 15.16C16.66 15.34 17 15.5 17.28 15.62C17.72 15.8 18.12 15.78 18.44 15.74C18.8 15.7 19.46 15.32 19.66 14.88C19.86 14.44 19.86 14.08 19.8 13.98C19.74 13.88 19.62 13.84 19.44 13.76C19.26 13.68 18.28 13.2 18.1 13.12C17.92 13.04 17.78 13 17.62 13.16C17.46 13.32 17 13.76 16.88 13.86C16.76 13.96 16.64 13.98 16.46 13.9C16.28 13.82 15.62 13.6 14.82 12.9C14.2 12.34 13.78 11.66 13.66 11.48C13.54 11.3 13.64 11.2 13.74 11.1C13.84 11 13.98 10.84 14.08 10.72C14.18 10.6 14.22 10.5 14.3 10.4C14.38 10.3 14.36 10.22 14.3 10.14C14.26 10.06 13.9 9.28 13.72 8.9C13.56 8.54 13.4 8.54 13.28 8.54C13.16 8.54 13.02 8.54 12.88 8.54C12.74 8.54 12.56 8.58 12.38 8.74C12.2 8.9 11.72 9.34 11.72 10.18C11.72 11.02 12.32 11.84 12.4 11.94C12.48 12.04 13.8 14.06 15.82 14.84C16.24 15.02 16.58 15.16 16.86 15.28C17.36 15.48 17.8 15.46 18.14 15.42C18.48 15.38 19.16 14.98 19.36 14.54C19.56 14.1 19.56 13.74 19.5 13.64C19.44 13.56 19.3 13.52 19.12 13.44C18.92 13.36 18 12.88 17.82 12.8C17.62 12.72 17.48 12.68 17.32 12.84C17.16 13 16.7 13.44 16.58 13.54C16.46 13.64 16.34 13.66 16.16 13.58C15.98 13.5 15.32 13.28 14.52 12.58C13.9 12.02 13.48 11.34 13.36 11.16C13.24 10.98 13.34 10.88 13.44 10.78C13.54 10.68 13.68 10.52 13.78 10.4C13.88 10.28 13.92 10.18 14 10.08C14.08 9.98 14.06 9.9 14 9.82C13.94 9.74 13.58 8.96 13.38 8.56C13.24 8.28 13.14 8.28 13.04 8.28C12.94 8.28 12.84 8.28 12.74 8.28C12.64 8.28 12.5 8.32 12.36 8.46C12.22 8.6 11.76 9.04 11.76 9.88C11.76 10.72 12.36 11.54 12.44 11.64C12.52 11.74 13.84 13.76 15.86 14.54C16.28 14.72 16.62 14.86 16.9 14.98C17.4 15.18 17.84 15.16 18.18 15.12C18.52 15.08 19.2 14.68 19.4 14.24C19.6 13.8 19.6 13.44 19.54 13.34C19.48 13.24 19.34 13.2 19.16 13.12C18.98 13.04 18.06 12.58 17.86 12.5C17.66 12.42 17.52 12.38 17.36 12.54C17.2 12.7 16.74 13.14 16.62 13.24C16.5 13.34 16.38 13.36 16.2 13.28C16.02 13.2 15.36 12.98 14.56 12.28C13.94 11.72 13.52 11.04 13.4 10.86C13.28 10.68 13.38 10.58 13.48 10.48C13.58 10.38 13.72 10.22 13.82 10.1C13.92 9.98 13.96 9.88 14.04 9.78C14.12 9.68 14.1 9.6 14.04 9.52C13.98 9.44 13.64 8.68 13.46 8.28C13.33 8 13.19 8 13.08 8C12.97 8 12.85 8 12.73 8C12.61 8 12.46 8.04 12.3 8.2C12.14 8.36 11.66 8.82 11.66 9.7C11.66 10.58 12.3 11.44 12.38 11.54C12.46 11.64 13.8 13.72 15.9 14.52C16.34 14.7 16.7 14.84 17 14.96C17.52 15.16 17.98 15.14 18.34 15.1C18.7 15.06 19.4 14.64 19.6 14.2C19.8 13.76 19.8 13.38 19.74 13.28C19.68 13.18 19.54 13.14 19.36 13.06C19.18 12.98 18.52 12.66 18.04 12.42L17.52 13.76Z" fill="white"/>
</svg>