<svg xmlns="http://www.w3.org/2000/svg" viewBox="0 0 24 24">
  <path fill="#FFFFFF" d="M19.952,12.694c0-3.363-3.37-6.1-7.502-6.1s-7.502,2.737-7.502,6.1c0,3.018,2.673,5.541,6.283,6.018c0.246,0.053,0.58,0.163,0.665,0.374c0.076,0.192,0.05,0.492,0.024,0.686c0,0-0.089,0.536-0.108,0.65c-0.033,0.192-0.152,0.75,0.657,0.409s4.375-2.578,5.972-4.411h0.001C19.338,14.843,19.952,13.829,19.952,12.694z M10.225,15.018H8.702c-0.138,0-0.25-0.112-0.25-0.25v-3.6c0-0.138,0.112-0.25,0.25-0.25s0.25,0.112,0.25,0.25v3.35h1.273c0.138,0,0.25,0.112,0.25,0.25S10.363,15.018,10.225,15.018z M11.325,14.768c0,0.138-0.112,0.25-0.25,0.25s-0.25-0.112-0.25-0.25v-3.6c0-0.138,0.112-0.25,0.25-0.25 s0.25,0.112,0.25,0.25V14.768z M15.326,14.768c0,0.107-0.068,0.204-0.169,0.239c-0.026,0.009-0.054,0.014-0.081,0.014 c-0.076,0-0.151-0.035-0.199-0.1l-1.773-2.401v2.248c0,0.138-0.112,0.25-0.25,0.25s-0.25-0.112-0.25-0.25v-3.6 c0-0.107,0.068-0.204,0.169-0.239c0.026-0.009,0.054-0.014,0.081-0.014c0.076,0,0.151,0.035,0.199,0.1l1.773,2.401v-2.248 c0-0.138,0.112-0.25,0.25-0.25s0.25,0.112,0.25,0.25V14.768z M16.5,13.018h1.274c0.138,0,0.25,0.112,0.25,0.25 s-0.112,0.25-0.25,0.25H16.5h-0.275c-0.138,0-0.25-0.112-0.25-0.25v-3.6c0-0.138,0.112-0.25,0.25-0.25H16.5h1.274 c0.138,0,0.25,0.112,0.25,0.25s-0.112,0.25-0.25,0.25H16.5v1.15h1.274c0.138,0,0.25,0.112,0.25,0.25s-0.112,0.25-0.25,0.25H16.5 V13.018z"/>
</svg>